HIERARCHY
ROOT Hips
{
	OFFSET -0.001795 -0.223333 0.028219
	CHANNELS 6 Xposition Yposition Zposition Zrotation Yrotation Xrotation 
	JOINT LeftUpLeg
	{
		OFFSET 0.069520 -0.091406 -0.006815
		CHANNELS 3 Zrotation Yrotation Xrotation
		JOINT LeftLeg
		{
			OFFSET 0.034277 -0.375199 -0.004496
			CHANNELS 3 Zrotation Yrotation Xrotation
			JOINT LeftFoot
			{
				OFFSET -0.013596 -0.397961 -0.043693
				CHANNELS 3 Zrotation Yrotation Xrotation
				JOINT LeftToe
				{
					OFFSET 0.026358 -0.055791 0.119288
					CHANNELS 3 Zrotation Yrotation Xrotation
					End Site
					{
						OFFSET 0.000000 0.000000 0.000000
					}
				}
			}
		}
	}
	JOINT RightUpLeg
	{
		OFFSET -0.067670 -0.090522 -0.004320
		CHANNELS 3 Zrotation Yrotation Xrotation
		JOINT RightLeg
		{
			OFFSET -0.038290 -0.382569 -0.008850
			CHANNELS 3 Zrotation Yrotation Xrotation
			JOINT RightFoot
			{
				OFFSET 0.015774 -0.398415 -0.042312
				CHANNELS 3 Zrotation Yrotation Xrotation
				JOINT RightToe
				{
					OFFSET -0.025372 -0.048144 0.123348
					CHANNELS 3 Zrotation Yrotation Xrotation
					End Site
					{
						OFFSET 0.000000 0.000000 0.000000
					}
				}
			}
		}
	}
	JOINT Spine
	{
		OFFSET -0.002533 0.108963 -0.026696
		CHANNELS 3 Zrotation Yrotation Xrotation
		JOINT Spine1
		{
			OFFSET 0.005487 0.135180 0.001092
			CHANNELS 3 Zrotation Yrotation Xrotation
			JOINT Spine2
			{
				OFFSET 0.001457 0.052922 0.025425
				CHANNELS 3 Zrotation Yrotation Xrotation
				JOINT Neck
				{
					OFFSET -0.002778 0.213870 -0.042857
					CHANNELS 3 Zrotation Yrotation Xrotation
					JOINT Head
					{
						OFFSET 0.005152 0.064970 0.051349
						CHANNELS 3 Zrotation Yrotation Xrotation
						End Site
						{
							OFFSET 0.000000 0.000000 0.000000
						}
					}
				}
				JOINT LeftShoulder
				{
					OFFSET 0.078845 0.121749 -0.034090
					CHANNELS 3 Zrotation Yrotation Xrotation
					JOINT LeftArm
					{
						OFFSET 0.090977 0.030469 -0.008868
						CHANNELS 3 Zrotation Yrotation Xrotation
						JOINT LeftForeArm
						{
							OFFSET 0.259612 -0.012772 -0.027456
							CHANNELS 3 Zrotation Yrotation Xrotation
							JOINT LeftHand
							{
								OFFSET 0.249234 0.008986 -0.001171
								CHANNELS 3 Zrotation Yrotation Xrotation
								End Site
								{
									OFFSET 0.000000 0.000000 0.000000
								}
							}
						}
					}
				}
				JOINT RightShoulder
				{
					OFFSET -0.081759 0.118833 -0.038615
					CHANNELS 3 Zrotation Yrotation Xrotation
					JOINT RightArm
					{
						OFFSET -0.096012 0.032551 -0.009143
						CHANNELS 3 Zrotation Yrotation Xrotation
						JOINT RightForeArm
						{
							OFFSET -0.253742 -0.013329 -0.021401
							CHANNELS 3 Zrotation Yrotation Xrotation
							JOINT RightHand
							{
								OFFSET -0.255298 0.007772 -0.005559
								CHANNELS 3 Zrotation Yrotation Xrotation
								End Site
								{
									OFFSET 0.000000 0.000000 0.000000
								}
							}
						}
					}
				}
			}
		}
	}
}
MOTION
Frames: 10
Frame Time: 0.050000
-0.187408 0.970020 -0.308900 -169.635030 77.855107 -175.652681 8.250229 -2.645980 -2.564907 -3.489673 -1.700061 -0.949079 4.318557 11.537506 22.258794 0.000000 0.000000 0.000000 -6.481350 -4.386658 4.813427 -3.310226 -15.753093 30.027740 0.616445 -1.872318 6.397035 0.000000 0.000000 0.000000 -7.968524 -3.444539 19.348481 3.229190 1.136943 -29.533048 7.036509 5.292583 33.482686 -1.693214 11.404555 -29.293737 0.000000 0.000000 0.000000 -14.410905 4.416018 -27.347622 -42.255219 13.207369 -8.432382 -43.756083 -22.618901 3.803471 0.000000 0.000000 0.000000 3.839601 -6.334255 2.310956 54.478366 4.205012 2.457839 30.509775 46.200081 21.964146 0.000000 0.000000 0.000000 
-0.175328 0.975131 -0.328114 -166.714409 79.400003 -171.400823 8.279168 -2.762008 -1.502531 -4.335543 -2.166256 -3.527412 6.586072 12.536946 21.855601 0.000000 0.000000 0.000000 -4.142601 -3.154062 2.906658 3.949353 -14.745761 22.395967 -5.099842 -13.662665 5.636007 0.000000 0.000000 0.000000 -7.311147 -3.323302 19.275088 2.702333 1.076900 -30.033251 6.523802 3.994243 32.406158 -0.590966 11.095842 -27.740053 0.000000 0.000000 0.000000 -14.736792 4.090240 -26.255473 -40.671998 11.732399 -7.349403 -41.383531 -25.926656 4.642276 0.000000 0.000000 0.000000 5.164387 -5.849457 3.060584 53.559130 4.412446 1.421136 31.171548 47.261681 22.697016 0.000000 0.000000 0.000000 
-0.165531 0.977517 -0.343743 -165.269202 81.730758 -168.847061 6.811362 -2.209517 -1.200971 -3.145121 -1.811440 -3.963171 6.516531 13.092502 22.379755 0.000000 0.000000 0.000000 -2.710569 -2.296100 1.048028 7.626223 -12.573360 16.596286 -9.644146 -21.456800 8.268963 0.000000 0.000000 0.000000 -7.333529 -3.350069 19.696223 2.651197 0.613332 -31.865335 6.229941 4.203047 33.414588 -0.853493 11.392649 -29.255030 0.000000 0.000000 0.000000 -14.947903 5.079199 -25.836413 -39.323636 9.329417 -6.304470 -39.679660 -29.145497 5.489116 0.000000 0.000000 0.000000 6.797807 -7.223277 2.999789 52.900257 4.986418 0.716096 30.314833 48.034199 22.856100 0.000000 0.000000 0.000000 
-0.157252 0.977540 -0.356554 -162.187188 84.512708 -165.172071 5.352740 -1.821480 -0.150945 -2.588564 -1.680951 -4.821141 7.973235 14.122621 22.270823 0.000000 0.000000 0.000000 -1.224299 -1.579684 0.076770 7.675291 -9.714244 13.039507 -13.448293 -26.861723 11.710813 0.000000 0.000000 0.000000 -7.459703 -3.401369 20.220764 2.395444 0.483043 -32.442085 6.052003 4.675720 32.946788 0.089953 11.097124 -29.522625 0.000000 0.000000 0.000000 -15.704927 3.837759 -24.722980 -37.540992 8.059049 -5.263116 -37.061594 -31.313778 5.813106 0.000000 0.000000 0.000000 8.181918 -6.708972 3.821621 52.113394 4.396546 -0.548997 28.833321 49.242412 22.426779 0.000000 0.000000 0.000000 
-0.150259 0.975926 -0.366704 -153.322116 86.778613 -155.590114 4.263515 -1.544548 0.638264 -2.266252 -1.698335 -6.078200 9.949014 15.456404 22.858112 0.000000 0.000000 0.000000 -0.501525 -1.187687 -0.958000 8.655996 -8.563584 10.413967 -17.498693 -31.314774 16.104066 0.000000 0.000000 0.000000 -7.372049 -3.269340 20.089858 2.321986 0.461921 -32.298080 5.681062 4.238918 32.549076 -0.315285 11.118819 -30.453748 0.000000 0.000000 0.000000 -15.796786 4.086048 -23.646577 -37.079654 6.148562 -4.688233 -34.773134 -31.976666 5.614654 0.000000 0.000000 0.000000 8.266858 -7.550040 2.909715 52.241026 3.422384 -1.045586 27.873361 49.354012 22.087953 0.000000 0.000000 0.000000 
-0.143687 0.973925 -0.374026 -115.549131 88.685940 -117.326869 3.749681 -1.298349 0.120366 -2.128536 -1.427720 -4.985172 11.108546 16.239192 22.642588 0.000000 0.000000 0.000000 0.671606 -0.750929 -1.490544 8.807414 -6.956947 7.329146 -21.401766 -34.684727 21.021414 0.000000 0.000000 0.000000 -6.736351 -3.207377 20.154665 2.359481 0.426518 -32.387967 5.151437 3.786496 32.261323 0.430589 10.757993 -30.363627 0.000000 0.000000 0.000000 -16.317945 3.633475 -22.919789 -36.613854 5.135450 -4.156512 -33.133779 -33.260963 5.620644 0.000000 0.000000 0.000000 8.585895 -7.871297 2.546253 51.657186 2.120919 -1.988201 26.258220 50.652086 22.031145 0.000000 0.000000 0.000000 
-0.137114 0.971669 -0.378387 -19.006025 87.462691 -20.665825 3.598333 -1.198383 0.373797 -2.975103 -1.347469 -4.093381 12.542274 17.235982 21.456811 0.000000 0.000000 0.000000 1.064008 -0.591330 -0.961108 9.601537 -6.206176 4.888255 -23.014441 -36.430649 22.980988 0.000000 0.000000 0.000000 -6.200189 -3.006580 19.807093 2.155670 0.663733 -31.362565 5.094406 3.395125 31.749532 0.942349 10.369174 -30.111357 0.000000 0.000000 0.000000 -16.713455 2.973745 -21.748436 -36.525525 3.757961 -3.688915 -30.596544 -33.873615 5.266473 0.000000 0.000000 0.000000 7.779740 -7.892152 1.641848 51.936954 0.699083 -2.472747 24.081858 50.834081 21.071937 0.000000 0.000000 0.000000 
-0.130087 0.969736 -0.380078 -9.366807 84.083408 -11.166738 4.648144 -1.363196 0.542721 -4.821602 -1.377548 -2.494570 15.506116 19.313882 21.719773 0.000000 0.000000 0.000000 2.211976 -0.375868 0.176254 8.941752 -4.905577 2.848154 -23.995033 -36.682388 25.357179 0.000000 0.000000 0.000000 -5.124809 -2.993614 19.917089 2.913591 0.539180 -31.549672 4.172350 3.642006 31.988137 1.458300 9.878794 -30.002150 0.000000 0.000000 0.000000 -17.240581 2.590243 -20.773442 -36.554831 3.542478 -3.617204 -29.642154 -34.552988 5.237968 0.000000 0.000000 0.000000 7.522367 -7.653244 1.228071 51.302468 -0.415898 -3.047099 23.299713 51.113503 20.653778 0.000000 0.000000 0.000000 
-0.123146 0.967072 -0.379388 -4.312838 79.806789 -6.671990 5.024833 -1.356036 0.865415 -6.269383 -1.247105 0.042740 18.065432 21.443048 21.296021 0.000000 0.000000 0.000000 2.603859 -0.312597 0.794942 9.274124 -4.651765 2.479710 -24.429453 -38.323942 25.170387 0.000000 0.000000 0.000000 -4.582595 -3.071537 20.488476 3.554143 0.490643 -31.350559 4.323548 3.986313 31.899898 1.698025 9.493977 -30.160586 0.000000 0.000000 0.000000 -17.948524 3.013271 -20.101864 -37.340120 2.692050 -3.556981 -30.109599 -34.567711 5.496565 0.000000 0.000000 0.000000 6.557137 -8.023577 0.057618 50.933037 -1.697382 -3.544945 25.514937 51.750341 22.597084 0.000000 0.000000 0.000000 
-0.117118 0.965825 -0.376792 -3.283376 74.556763 -6.613430 6.212724 -1.631275 2.324832 -8.344003 -1.206895 2.628930 21.391538 24.414543 23.087475 0.000000 0.000000 0.000000 3.540295 -0.282854 1.802589 8.855437 -3.935537 1.783458 -23.306035 -37.615622 24.302903 0.000000 0.000000 0.000000 -3.491984 -3.155387 20.978147 5.185053 0.325228 -30.854053 2.833222 4.366174 31.946384 2.396139 8.688402 -30.817412 0.000000 0.000000 0.000000 -18.460565 3.354283 -18.817351 -37.740172 2.888384 -3.850108 -31.770882 -35.613527 6.308507 0.000000 0.000000 0.000000 6.972257 -7.418742 0.155369 48.633423 -1.948678 -4.305656 29.651344 52.035773 24.945340 0.000000 0.000000 0.000000 
